# Authored static chamfered surface: RoundedShell
o RoundedShell
s off
v 0.415000 -0.500000 0.304500
v 0.409592 -0.500000 0.338646
v 0.393896 -0.500000 0.369450
v 0.369450 -0.500000 0.393896
v 0.338646 -0.500000 0.409592
v 0.304500 -0.500000 0.415000
v -0.304500 -0.500000 0.415000
v -0.338646 -0.500000 0.409592
v -0.369450 -0.500000 0.393896
v -0.393896 -0.500000 0.369450
v -0.409592 -0.500000 0.338646
v -0.415000 -0.500000 0.304500
v -0.415000 -0.500000 -0.304500
v -0.409592 -0.500000 -0.338646
v -0.393896 -0.500000 -0.369450
v -0.369450 -0.500000 -0.393896
v -0.338646 -0.500000 -0.409592
v -0.304500 -0.500000 -0.415000
v 0.304500 -0.500000 -0.415000
v 0.338646 -0.500000 -0.409592
v 0.369450 -0.500000 -0.393896
v 0.393896 -0.500000 -0.369450
v 0.409592 -0.500000 -0.338646
v 0.415000 -0.500000 -0.304500
v 0.500000 -0.415000 0.330000
v 0.491680 -0.415000 0.382533
v 0.467533 -0.415000 0.429923
v 0.429923 -0.415000 0.467533
v 0.382533 -0.415000 0.491680
v 0.330000 -0.415000 0.500000
v -0.330000 -0.415000 0.500000
v -0.382533 -0.415000 0.491680
v -0.429923 -0.415000 0.467533
v -0.467533 -0.415000 0.429923
v -0.491680 -0.415000 0.382533
v -0.500000 -0.415000 0.330000
v -0.500000 -0.415000 -0.330000
v -0.491680 -0.415000 -0.382533
v -0.467533 -0.415000 -0.429923
v -0.429923 -0.415000 -0.467533
v -0.382533 -0.415000 -0.491680
v -0.330000 -0.415000 -0.500000
v 0.330000 -0.415000 -0.500000
v 0.382533 -0.415000 -0.491680
v 0.429923 -0.415000 -0.467533
v 0.467533 -0.415000 -0.429923
v 0.491680 -0.415000 -0.382533
v 0.500000 -0.415000 -0.330000
v 0.500000 0.415000 0.330000
v 0.491680 0.415000 0.382533
v 0.467533 0.415000 0.429923
v 0.429923 0.415000 0.467533
v 0.382533 0.415000 0.491680
v 0.330000 0.415000 0.500000
v -0.330000 0.415000 0.500000
v -0.382533 0.415000 0.491680
v -0.429923 0.415000 0.467533
v -0.467533 0.415000 0.429923
v -0.491680 0.415000 0.382533
v -0.500000 0.415000 0.330000
v -0.500000 0.415000 -0.330000
v -0.491680 0.415000 -0.382533
v -0.467533 0.415000 -0.429923
v -0.429923 0.415000 -0.467533
v -0.382533 0.415000 -0.491680
v -0.330000 0.415000 -0.500000
v 0.330000 0.415000 -0.500000
v 0.382533 0.415000 -0.491680
v 0.429923 0.415000 -0.467533
v 0.467533 0.415000 -0.429923
v 0.491680 0.415000 -0.382533
v 0.500000 0.415000 -0.330000
v 0.415000 0.500000 0.304500
v 0.409592 0.500000 0.338646
v 0.393896 0.500000 0.369450
v 0.369450 0.500000 0.393896
v 0.338646 0.500000 0.409592
v 0.304500 0.500000 0.415000
v -0.304500 0.500000 0.415000
v -0.338646 0.500000 0.409592
v -0.369450 0.500000 0.393896
v -0.393896 0.500000 0.369450
v -0.409592 0.500000 0.338646
v -0.415000 0.500000 0.304500
v -0.415000 0.500000 -0.304500
v -0.409592 0.500000 -0.338646
v -0.393896 0.500000 -0.369450
v -0.369450 0.500000 -0.393896
v -0.338646 0.500000 -0.409592
v -0.304500 0.500000 -0.415000
v 0.304500 0.500000 -0.415000
v 0.338646 0.500000 -0.409592
v 0.369450 0.500000 -0.393896
v 0.393896 0.500000 -0.369450
v 0.409592 0.500000 -0.338646
v 0.415000 0.500000 -0.304500
v 0.000000 -0.500000 0.000000
v 0.000000 0.500000 0.000000
vn 0.686419 -0.719034 0.108718
vn 0.686419 -0.719034 0.108718
vn 0.600885 -0.738376 0.306166
vn 0.600885 -0.738376 0.306166
vn 0.471964 -0.744647 0.471964
vn 0.471964 -0.744647 0.471964
vn 0.306166 -0.738376 0.600885
vn 0.306166 -0.738376 0.600885
vn 0.108718 -0.719034 0.686419
vn 0.108718 -0.719034 0.686419
vn 0.000000 -0.707107 0.707107
vn 0.000000 -0.707107 0.707107
vn -0.108718 -0.719034 0.686419
vn -0.108718 -0.719034 0.686419
vn -0.306166 -0.738376 0.600885
vn -0.306166 -0.738376 0.600885
vn -0.471964 -0.744647 0.471964
vn -0.471964 -0.744647 0.471964
vn -0.600885 -0.738376 0.306166
vn -0.600885 -0.738376 0.306166
vn -0.686419 -0.719034 0.108718
vn -0.686419 -0.719034 0.108718
vn -0.707107 -0.707107 0.000000
vn -0.707107 -0.707107 0.000000
vn -0.686419 -0.719034 -0.108718
vn -0.686419 -0.719034 -0.108718
vn -0.600885 -0.738376 -0.306166
vn -0.600885 -0.738376 -0.306166
vn -0.471964 -0.744647 -0.471964
vn -0.471964 -0.744647 -0.471964
vn -0.306166 -0.738376 -0.600885
vn -0.306166 -0.738376 -0.600885
vn -0.108718 -0.719034 -0.686419
vn -0.108718 -0.719034 -0.686419
vn 0.000000 -0.707107 -0.707107
vn 0.000000 -0.707107 -0.707107
vn 0.108718 -0.719034 -0.686419
vn 0.108718 -0.719034 -0.686419
vn 0.306166 -0.738376 -0.600885
vn 0.306166 -0.738376 -0.600885
vn 0.471964 -0.744647 -0.471964
vn 0.471964 -0.744647 -0.471964
vn 0.600885 -0.738376 -0.306166
vn 0.600885 -0.738376 -0.306166
vn 0.686419 -0.719034 -0.108718
vn 0.686419 -0.719034 -0.108718
vn 0.707107 -0.707107 0.000000
vn 0.707107 -0.707107 0.000000
vn 0.987688 0.000000 0.156434
vn 0.987688 0.000000 0.156434
vn 0.891007 0.000000 0.453990
vn 0.891007 0.000000 0.453990
vn 0.707107 0.000000 0.707107
vn 0.707107 0.000000 0.707107
vn 0.453990 0.000000 0.891007
vn 0.453990 0.000000 0.891007
vn 0.156434 0.000000 0.987688
vn 0.156434 0.000000 0.987688
vn 0.000000 0.000000 1.000000
vn 0.000000 0.000000 1.000000
vn -0.156434 0.000000 0.987688
vn -0.156434 0.000000 0.987688
vn -0.453990 0.000000 0.891007
vn -0.453990 0.000000 0.891007
vn -0.707107 0.000000 0.707107
vn -0.707107 0.000000 0.707107
vn -0.891007 0.000000 0.453990
vn -0.891007 0.000000 0.453990
vn -0.987688 0.000000 0.156434
vn -0.987688 0.000000 0.156434
vn -1.000000 0.000000 0.000000
vn -1.000000 0.000000 0.000000
vn -0.987688 0.000000 -0.156434
vn -0.987688 0.000000 -0.156434
vn -0.891007 0.000000 -0.453990
vn -0.891007 0.000000 -0.453990
vn -0.707107 0.000000 -0.707107
vn -0.707107 0.000000 -0.707107
vn -0.453990 0.000000 -0.891007
vn -0.453990 0.000000 -0.891007
vn -0.156434 0.000000 -0.987688
vn -0.156434 0.000000 -0.987688
vn 0.000000 0.000000 -1.000000
vn 0.000000 0.000000 -1.000000
vn 0.156434 0.000000 -0.987688
vn 0.156434 0.000000 -0.987688
vn 0.453990 0.000000 -0.891007
vn 0.453990 0.000000 -0.891007
vn 0.707107 0.000000 -0.707107
vn 0.707107 0.000000 -0.707107
vn 0.891007 0.000000 -0.453990
vn 0.891007 0.000000 -0.453990
vn 0.987688 0.000000 -0.156434
vn 0.987688 0.000000 -0.156434
vn 1.000000 0.000000 0.000000
vn 1.000000 0.000000 0.000000
vn 0.686419 0.719034 0.108718
vn 0.686419 0.719034 0.108718
vn 0.600885 0.738376 0.306166
vn 0.600885 0.738376 0.306166
vn 0.471964 0.744647 0.471964
vn 0.471964 0.744647 0.471964
vn 0.306166 0.738376 0.600885
vn 0.306166 0.738376 0.600885
vn 0.108718 0.719034 0.686419
vn 0.108718 0.719034 0.686419
vn 0.000000 0.707107 0.707107
vn 0.000000 0.707107 0.707107
vn -0.108718 0.719034 0.686419
vn -0.108718 0.719034 0.686419
vn -0.306166 0.738376 0.600885
vn -0.306166 0.738376 0.600885
vn -0.471964 0.744647 0.471964
vn -0.471964 0.744647 0.471964
vn -0.600885 0.738376 0.306166
vn -0.600885 0.738376 0.306166
vn -0.686419 0.719034 0.108718
vn -0.686419 0.719034 0.108718
vn -0.707107 0.707107 0.000000
vn -0.707107 0.707107 0.000000
vn -0.686419 0.719034 -0.108718
vn -0.686419 0.719034 -0.108718
vn -0.600885 0.738376 -0.306166
vn -0.600885 0.738376 -0.306166
vn -0.471964 0.744647 -0.471964
vn -0.471964 0.744647 -0.471964
vn -0.306166 0.738376 -0.600885
vn -0.306166 0.738376 -0.600885
vn -0.108718 0.719034 -0.686419
vn -0.108718 0.719034 -0.686419
vn 0.000000 0.707107 -0.707107
vn 0.000000 0.707107 -0.707107
vn 0.108718 0.719034 -0.686419
vn 0.108718 0.719034 -0.686419
vn 0.306166 0.738376 -0.600885
vn 0.306166 0.738376 -0.600885
vn 0.471964 0.744647 -0.471964
vn 0.471964 0.744647 -0.471964
vn 0.600885 0.738376 -0.306166
vn 0.600885 0.738376 -0.306166
vn 0.686419 0.719034 -0.108718
vn 0.686419 0.719034 -0.108718
vn 0.707107 0.707107 0.000000
vn 0.707107 0.707107 0.000000
vn 0.000000 -1.000000 0.000000
vn 0.000000 1.000000 0.000000
vn 0.000000 -1.000000 0.000000
vn 0.000000 1.000000 0.000000
vn 0.000000 -1.000000 0.000000
vn 0.000000 1.000000 0.000000
vn 0.000000 -1.000000 0.000000
vn 0.000000 1.000000 0.000000
vn 0.000000 -1.000000 0.000000
vn 0.000000 1.000000 0.000000
vn 0.000000 -1.000000 0.000000
vn 0.000000 1.000000 0.000000
vn 0.000000 -1.000000 0.000000
vn 0.000000 1.000000 0.000000
vn 0.000000 -1.000000 0.000000
vn 0.000000 1.000000 0.000000
vn 0.000000 -1.000000 0.000000
vn 0.000000 1.000000 0.000000
vn 0.000000 -1.000000 0.000000
vn 0.000000 1.000000 0.000000
vn 0.000000 -1.000000 0.000000
vn 0.000000 1.000000 0.000000
vn 0.000000 -1.000000 0.000000
vn 0.000000 1.000000 0.000000
vn 0.000000 -1.000000 0.000000
vn 0.000000 1.000000 0.000000
vn 0.000000 -1.000000 0.000000
vn 0.000000 1.000000 0.000000
vn 0.000000 -1.000000 0.000000
vn 0.000000 1.000000 0.000000
vn 0.000000 -1.000000 0.000000
vn 0.000000 1.000000 0.000000
vn 0.000000 -1.000000 0.000000
vn 0.000000 1.000000 0.000000
vn 0.000000 -1.000000 0.000000
vn 0.000000 1.000000 0.000000
vn 0.000000 -1.000000 0.000000
vn 0.000000 1.000000 0.000000
vn 0.000000 -1.000000 0.000000
vn 0.000000 1.000000 0.000000
vn 0.000000 -1.000000 0.000000
vn 0.000000 1.000000 0.000000
vn 0.000000 -1.000000 0.000000
vn 0.000000 1.000000 0.000000
vn 0.000000 -1.000000 0.000000
vn 0.000000 1.000000 0.000000
vn 0.000000 -1.000000 0.000000
vn 0.000000 1.000000 0.000000
f 1//1 26//1 2//1
f 1//2 25//2 26//2
f 2//3 27//3 3//3
f 2//4 26//4 27//4
f 3//5 28//5 4//5
f 3//6 27//6 28//6
f 4//7 29//7 5//7
f 4//8 28//8 29//8
f 5//9 30//9 6//9
f 5//10 29//10 30//10
f 6//11 31//11 7//11
f 6//12 30//12 31//12
f 7//13 32//13 8//13
f 7//14 31//14 32//14
f 8//15 33//15 9//15
f 8//16 32//16 33//16
f 9//17 34//17 10//17
f 9//18 33//18 34//18
f 10//19 35//19 11//19
f 10//20 34//20 35//20
f 11//21 36//21 12//21
f 11//22 35//22 36//22
f 12//23 37//23 13//23
f 12//24 36//24 37//24
f 13//25 38//25 14//25
f 13//26 37//26 38//26
f 14//27 39//27 15//27
f 14//28 38//28 39//28
f 15//29 40//29 16//29
f 15//30 39//30 40//30
f 16//31 41//31 17//31
f 16//32 40//32 41//32
f 17//33 42//33 18//33
f 17//34 41//34 42//34
f 18//35 43//35 19//35
f 18//36 42//36 43//36
f 19//37 44//37 20//37
f 19//38 43//38 44//38
f 20//39 45//39 21//39
f 20//40 44//40 45//40
f 21//41 46//41 22//41
f 21//42 45//42 46//42
f 22//43 47//43 23//43
f 22//44 46//44 47//44
f 23//45 48//45 24//45
f 23//46 47//46 48//46
f 24//47 25//47 1//47
f 24//48 48//48 25//48
f 25//49 50//49 26//49
f 25//50 49//50 50//50
f 26//51 51//51 27//51
f 26//52 50//52 51//52
f 27//53 52//53 28//53
f 27//54 51//54 52//54
f 28//55 53//55 29//55
f 28//56 52//56 53//56
f 29//57 54//57 30//57
f 29//58 53//58 54//58
f 30//59 55//59 31//59
f 30//60 54//60 55//60
f 31//61 56//61 32//61
f 31//62 55//62 56//62
f 32//63 57//63 33//63
f 32//64 56//64 57//64
f 33//65 58//65 34//65
f 33//66 57//66 58//66
f 34//67 59//67 35//67
f 34//68 58//68 59//68
f 35//69 60//69 36//69
f 35//70 59//70 60//70
f 36//71 61//71 37//71
f 36//72 60//72 61//72
f 37//73 62//73 38//73
f 37//74 61//74 62//74
f 38//75 63//75 39//75
f 38//76 62//76 63//76
f 39//77 64//77 40//77
f 39//78 63//78 64//78
f 40//79 65//79 41//79
f 40//80 64//80 65//80
f 41//81 66//81 42//81
f 41//82 65//82 66//82
f 42//83 67//83 43//83
f 42//84 66//84 67//84
f 43//85 68//85 44//85
f 43//86 67//86 68//86
f 44//87 69//87 45//87
f 44//88 68//88 69//88
f 45//89 70//89 46//89
f 45//90 69//90 70//90
f 46//91 71//91 47//91
f 46//92 70//92 71//92
f 47//93 72//93 48//93
f 47//94 71//94 72//94
f 48//95 49//95 25//95
f 48//96 72//96 49//96
f 49//97 74//97 50//97
f 49//98 73//98 74//98
f 50//99 75//99 51//99
f 50//100 74//100 75//100
f 51//101 76//101 52//101
f 51//102 75//102 76//102
f 52//103 77//103 53//103
f 52//104 76//104 77//104
f 53//105 78//105 54//105
f 53//106 77//106 78//106
f 54//107 79//107 55//107
f 54//108 78//108 79//108
f 55//109 80//109 56//109
f 55//110 79//110 80//110
f 56//111 81//111 57//111
f 56//112 80//112 81//112
f 57//113 82//113 58//113
f 57//114 81//114 82//114
f 58//115 83//115 59//115
f 58//116 82//116 83//116
f 59//117 84//117 60//117
f 59//118 83//118 84//118
f 60//119 85//119 61//119
f 60//120 84//120 85//120
f 61//121 86//121 62//121
f 61//122 85//122 86//122
f 62//123 87//123 63//123
f 62//124 86//124 87//124
f 63//125 88//125 64//125
f 63//126 87//126 88//126
f 64//127 89//127 65//127
f 64//128 88//128 89//128
f 65//129 90//129 66//129
f 65//130 89//130 90//130
f 66//131 91//131 67//131
f 66//132 90//132 91//132
f 67//133 92//133 68//133
f 67//134 91//134 92//134
f 68//135 93//135 69//135
f 68//136 92//136 93//136
f 69//137 94//137 70//137
f 69//138 93//138 94//138
f 70//139 95//139 71//139
f 70//140 94//140 95//140
f 71//141 96//141 72//141
f 71//142 95//142 96//142
f 72//143 73//143 49//143
f 72//144 96//144 73//144
f 97//145 1//145 2//145
f 98//146 74//146 73//146
f 97//147 2//147 3//147
f 98//148 75//148 74//148
f 97//149 3//149 4//149
f 98//150 76//150 75//150
f 97//151 4//151 5//151
f 98//152 77//152 76//152
f 97//153 5//153 6//153
f 98//154 78//154 77//154
f 97//155 6//155 7//155
f 98//156 79//156 78//156
f 97//157 7//157 8//157
f 98//158 80//158 79//158
f 97//159 8//159 9//159
f 98//160 81//160 80//160
f 97//161 9//161 10//161
f 98//162 82//162 81//162
f 97//163 10//163 11//163
f 98//164 83//164 82//164
f 97//165 11//165 12//165
f 98//166 84//166 83//166
f 97//167 12//167 13//167
f 98//168 85//168 84//168
f 97//169 13//169 14//169
f 98//170 86//170 85//170
f 97//171 14//171 15//171
f 98//172 87//172 86//172
f 97//173 15//173 16//173
f 98//174 88//174 87//174
f 97//175 16//175 17//175
f 98//176 89//176 88//176
f 97//177 17//177 18//177
f 98//178 90//178 89//178
f 97//179 18//179 19//179
f 98//180 91//180 90//180
f 97//181 19//181 20//181
f 98//182 92//182 91//182
f 97//183 20//183 21//183
f 98//184 93//184 92//184
f 97//185 21//185 22//185
f 98//186 94//186 93//186
f 97//187 22//187 23//187
f 98//188 95//188 94//188
f 97//189 23//189 24//189
f 98//190 96//190 95//190
f 97//191 24//191 1//191
f 98//192 73//192 96//192
